<svg width="11" height="14" viewBox="0 0 11 14" fill="none" xmlns="http://www.w3.org/2000/svg">
<path d="M8.71337 9.3233C8.47013 9.20107 8.1738 9.2959 8.04671 9.53663C7.92926 9.78189 8.02636 10.0761 8.26671 10.2033C8.85337 10.5033 9.18671 10.87 9.18671 11.2233C9.18671 11.9766 7.61337 12.8166 5.50671 12.8166C3.40004 12.8166 1.82004 11.9833 1.82004 11.25C1.82004 10.9033 2.15337 10.53 2.74004 10.23C2.91597 10.1594 3.03689 9.99546 3.0523 9.80654C3.06772 9.61762 2.97497 9.43622 2.8128 9.3381C2.65063 9.23997 2.44691 9.24199 2.28671 9.3433C1.47731 9.64837 0.913026 10.3887 0.833374 11.25C0.833374 12.73 2.83337 13.8433 5.50004 13.8433C8.16671 13.8433 10.1667 12.73 10.1667 11.25C10.0944 10.3812 9.52887 9.63146 8.71337 9.3233Z" fill="#212529"/>
<path fill-rule="evenodd" clip-rule="evenodd" d="M5.00004 11.5433V8.6633C2.80464 8.39879 1.19506 6.47017 1.32755 4.26286C1.46004 2.05555 3.28876 0.333313 5.50004 0.333313C7.71132 0.333313 9.54004 2.05555 9.67253 4.26286C9.80502 6.47017 8.19545 8.39879 6.00004 8.6633V11.5433C6.00004 11.8194 5.77618 12.0433 5.50004 12.0433C5.2239 12.0433 5.00004 11.8194 5.00004 11.5433ZM8.44952 3.29407C7.95458 2.10269 6.79014 1.32727 5.50004 1.32997C3.7453 1.33363 2.32371 2.75522 2.32004 4.50997C2.31735 5.80006 3.09276 6.9645 4.28414 7.45945C5.47552 7.95439 6.84778 7.68218 7.76002 6.76994C8.67225 5.8577 8.94447 4.48545 8.44952 3.29407Z" fill="#212529"/>
<path d="M3.89338 5.24997C4.16952 5.24997 4.39338 5.02611 4.39338 4.74997C4.39338 3.98413 5.01421 3.3633 5.78004 3.3633C6.05618 3.3633 6.28004 3.13944 6.28004 2.8633C6.28004 2.58716 6.05618 2.3633 5.78004 2.3633C5.14529 2.36507 4.53724 2.61892 4.08965 3.069C3.64206 3.51909 3.3916 4.12855 3.39338 4.7633C3.39513 4.89415 3.4488 5.01893 3.54257 5.1102C3.63634 5.20147 3.76253 5.25175 3.89338 5.24997Z" fill="#212529"/>
</svg>
