<svg width="50" height="41" viewBox="0 0 50 41" fill="none" xmlns="http://www.w3.org/2000/svg">
<path d="M48.963 23.3567L38.1364 12.5067C37.4308 11.8573 36.3452 11.8573 35.6397 12.5067L24.883 23.3567C24.4441 24.0336 24.5249 24.9228 25.0785 25.5096C25.6321 26.0964 26.5151 26.2287 27.2164 25.83L34.7297 18.3167V39.0833C34.7297 40.0498 35.5132 40.8333 36.4797 40.8333C37.4462 40.8333 38.2297 40.0498 38.2297 39.0833V17.64L46.4197 25.83C47.1029 26.5124 48.2098 26.5124 48.893 25.83C49.5951 25.1662 49.6265 24.0591 48.963 23.3567Z" fill="#212529"/>
<path d="M24.883 14.5133C24.1998 13.8309 23.0929 13.8309 22.4097 14.5133L14.9664 22.0267V1.75C14.9664 0.783502 14.1829 0 13.2164 0C12.2499 0 11.4664 0.783502 11.4664 1.75V22.75L3.27636 14.5133C2.58684 13.8708 1.51234 13.8898 0.845908 14.5562C0.17948 15.2226 0.160522 16.2971 0.803026 16.9867L11.6297 27.8367C12.3209 28.5218 13.4351 28.5218 14.1264 27.8367L24.883 16.9867C25.5654 16.3034 25.5654 15.1966 24.883 14.5133Z" fill="#212529"/>
</svg>
