<svg width="25" height="24" viewBox="0 0 25 24" fill="none" xmlns="http://www.w3.org/2000/svg">
<path d="M6.72438 17.9287C6.86591 18.0667 7.05676 18.1423 7.25438 18.1387C7.45141 18.1391 7.64109 18.064 7.78438 17.9287L17.1144 8.58994V16.6487C17.1144 17.0629 17.4502 17.3987 17.8644 17.3987C18.0658 17.4042 18.2608 17.3273 18.4042 17.1857C18.5477 17.0442 18.6272 16.8502 18.6244 16.6487V6.9165C18.6504 6.80241 18.6498 6.68188 18.6198 6.56444C18.5519 6.29871 18.3444 6.09121 18.0787 6.02334C17.9612 5.99335 17.8407 5.99275 17.7266 6.01873H7.99438C7.58017 6.01873 7.24438 6.35451 7.24438 6.76873C7.24438 7.18294 7.58017 7.51873 7.99438 7.51873H16.0644L6.72438 16.8587C6.58085 16.9997 6.5 17.1925 6.5 17.3937C6.5 17.5949 6.58085 17.7877 6.72438 17.9287Z" fill="#F8F9FA"/>
</svg>
