<svg width="44" height="44" viewBox="0 0 44 44" fill="none" xmlns="http://www.w3.org/2000/svg">
<path fill-rule="evenodd" clip-rule="evenodd" d="M13.47 14.25H14.47L14.52 14.26C15.9061 14.2869 17.1173 15.2033 17.52 16.53L17.72 17.22H28.15C29.071 17.2242 29.9456 17.625 30.55 18.32C31.1527 19.0194 31.4194 19.9473 31.28 20.86L30.68 25C30.4801 26.5869 29.1393 27.7825 27.54 27.8H21.66C20.2553 27.7948 19.0182 26.8741 18.61 25.53L16.08 17C15.8862 16.2682 15.227 15.7563 14.47 15.75H13.47C13.0558 15.75 12.72 15.4142 12.72 15C12.72 14.5858 13.0558 14.25 13.47 14.25ZM20.05 25.05C20.2622 25.762 20.917 26.25 21.66 26.25H27.54C28.3676 26.241 29.0686 25.6372 29.2 24.82L29.8 20.67C29.8817 20.1869 29.7485 19.6923 29.4352 19.3156C29.1219 18.9389 28.6598 18.7177 28.17 18.71H18.17L20.05 25.05Z" fill="#212529"/>
<path d="M21.43 29C20.8777 29 20.43 29.4477 20.43 30C20.43 30.5523 20.8777 31 21.43 31C21.9823 31 22.43 30.5523 22.43 30C22.43 29.4477 21.9823 29 21.43 29Z" fill="#212529"/>
<path d="M27.43 29C26.8777 29 26.43 29.4477 26.43 30C26.43 30.5523 26.8777 31 27.43 31C27.9823 31 28.43 30.5523 28.43 30C28.43 29.4477 27.9823 29 27.43 29Z" fill="#212529"/>
</svg>
