<svg width="19" height="17" viewBox="0 0 19 17" fill="none" xmlns="http://www.w3.org/2000/svg">
<path fill-rule="evenodd" clip-rule="evenodd" d="M0.969971 0.25H1.96997L2.01997 0.26C3.40613 0.286888 4.6173 1.20334 5.01997 2.53L5.21997 3.22H15.65C16.571 3.22419 17.4456 3.62503 18.05 4.32C18.6527 5.01937 18.9194 5.94735 18.78 6.86L18.18 11C17.9801 12.5869 16.6393 13.7825 15.04 13.8H9.15997C7.75527 13.7948 6.51821 12.8741 6.10997 11.53L3.57997 3C3.38623 2.26818 2.72697 1.75633 1.96997 1.75H0.969971C0.555757 1.75 0.219971 1.41421 0.219971 1C0.219971 0.585786 0.555757 0.25 0.969971 0.25ZM7.54997 11.05C7.76225 11.762 8.417 12.25 9.15997 12.25H15.04C15.8676 12.241 16.5686 11.6372 16.7 10.82L17.3 6.67C17.3817 6.18693 17.2485 5.69227 16.9352 5.31558C16.6219 4.93889 16.1598 4.71772 15.67 4.71H5.66997L7.54997 11.05Z" fill="#F8F9FA"/>
<path d="M8.92997 15C8.37769 15 7.92997 15.4477 7.92997 16C7.92997 16.5523 8.37769 17 8.92997 17C9.48226 17 9.92997 16.5523 9.92997 16C9.92997 15.4477 9.48226 15 8.92997 15Z" fill="#F8F9FA"/>
<path d="M14.93 15C14.3777 15 13.93 15.4477 13.93 16C13.93 16.5523 14.3777 17 14.93 17C15.4823 17 15.93 16.5523 15.93 16C15.93 15.4477 15.4823 15 14.93 15Z" fill="#F8F9FA"/>
</svg>
