<svg width="20" height="20" viewBox="0 0 20 20" fill="none" xmlns="http://www.w3.org/2000/svg">
<path fill-rule="evenodd" clip-rule="evenodd" d="M7.99994 0.220237C8.68023 0.0739942 9.3741 0.000249129 10.0699 0.000237184C12.8518 -0.0133657 15.5031 1.1792 17.3385 3.26971C19.1739 5.36021 20.0134 8.14351 19.6399 10.9002C19.0399 15.5002 14.4999 19.2202 9.85993 19.2202H3.19994C2.63381 19.2205 2.10916 18.9233 1.81819 18.4377C1.52722 17.9521 1.5127 17.3493 1.77994 16.8502L2.04994 16.3302C2.31866 15.8294 2.29959 15.2232 1.99994 14.7402C0.321637 12.1018 0.0334943 8.81139 1.22768 5.92145C2.42187 3.03152 4.94873 0.904287 7.99994 0.220237ZM9.77993 17.7102C13.8566 17.6459 17.3235 14.7185 18.0699 10.7102C18.409 8.38731 17.7106 6.03269 16.1599 4.27024C14.6239 2.51251 12.4042 1.50291 10.0699 1.50024C9.47873 1.50137 8.88913 1.56167 8.30993 1.68024C5.73508 2.25314 3.59972 4.04251 2.58517 6.47742C1.57063 8.91233 1.80366 11.6885 3.20993 13.9202C3.80823 14.8601 3.85032 16.0504 3.31993 17.0302L3.04993 17.5402C3.02795 17.5736 3.02795 17.6169 3.04993 17.6502C3.08993 17.7102 3.14993 17.7102 3.14993 17.7102H9.77993Z" fill="#212529"/>
</svg>
