<svg width="21" height="21" viewBox="0 0 21 21" fill="none" xmlns="http://www.w3.org/2000/svg">
<path d="M6.62 8.08C7.72457 8.08 8.62 7.18457 8.62 6.08C8.62 4.97543 7.72457 4.08 6.62 4.08C5.51543 4.08 4.62 4.97543 4.62 6.08C4.62 7.18457 5.51543 8.08 6.62 8.08Z" fill="#F8F9FA"/>
<path fill-rule="evenodd" clip-rule="evenodd" d="M12.74 0H8.5C4.08172 0 0.5 3.58172 0.5 8V12.24C0.5 16.6583 4.08172 20.24 8.5 20.24H12.74C17.1583 20.24 20.74 16.6583 20.74 12.24V8C20.74 5.87827 19.8971 3.84344 18.3969 2.34315C16.8966 0.842855 14.8617 0 12.74 0ZM8.5 1.5H12.74C15.9859 1.50507 18.7306 3.90396 19.17 7.12H17.62C13.4468 7.1234 9.58791 9.33824 7.48 12.94C6.16362 11.8943 4.53116 11.3267 2.85 11.33H2V8C2.00551 4.41243 4.91243 1.50551 8.5 1.5ZM2.85 12.83H2.03C2.24723 15.1883 3.72988 17.2418 5.9 18.19C5.97167 16.8552 6.27274 15.5426 6.79 14.31C5.69845 13.3571 4.29895 12.8314 2.85 12.83ZM12.74 18.74H8.5C8.12404 18.7385 7.74906 18.7017 7.38 18.63C7.50486 13.0613 12.05 8.60946 17.62 8.6H19.24V12.24C19.2345 15.8276 16.3276 18.7345 12.74 18.74Z" fill="#F8F9FA"/>
</svg>
