<svg width="24" height="24" viewBox="0 0 24 24" fill="none" xmlns="http://www.w3.org/2000/svg">
<path d="M5.00007 4.75C5.00007 4.33579 5.33586 4 5.75007 4L18.7501 4C19.1643 4 19.5001 4.33579 19.5001 4.75C19.5001 5.16421 19.1643 5.5 18.7501 5.5L5.75007 5.5C5.55034 5.50272 5.35799 5.42457 5.21674 5.28333C5.0755 5.14208 4.99735 4.94973 5.00007 4.75Z" fill="#212529"/>
<path d="M5.00007 11.75C5.00007 11.3358 5.33585 11 5.75007 11L18.7501 11C19.1643 11 19.5001 11.3358 19.5001 11.75C19.5001 12.1642 19.1643 12.5 18.7501 12.5L5.75007 12.5C5.55034 12.5027 5.35799 12.4246 5.21674 12.2833C5.07549 12.1421 4.99735 11.9497 5.00007 11.75Z" fill="#212529"/>
<path d="M5.00007 18.75C5.00007 18.3358 5.33585 18 5.75007 18L18.7501 18C19.1643 18 19.5001 18.3358 19.5001 18.75C19.5001 19.1642 19.1643 19.5 18.7501 19.5L5.75007 19.5C5.55033 19.5027 5.35799 19.4246 5.21674 19.2833C5.07549 19.1421 4.99735 18.9497 5.00007 18.75Z" fill="#212529"/>
</svg>
