<svg width="52" height="34" viewBox="0 0 52 34" fill="none" xmlns="http://www.w3.org/2000/svg">
<path fill-rule="evenodd" clip-rule="evenodd" d="M33.3333 8.44003C33.2571 12.2512 30.1453 15.3008 26.3333 15.3C22.5668 15.238 19.5248 12.2063 19.45 8.44003V5.80337C19.4495 4.25027 20.0759 2.76272 21.1872 1.67777C22.2985 0.592816 23.8007 0.00230573 25.3533 0.0400329H27.5467C29.0792 0.0338281 30.5512 0.638295 31.637 1.7198C32.7229 2.80131 33.3333 4.27078 33.3333 5.80337V8.44003ZM25.2833 3.47003C23.9947 3.47003 22.95 4.5147 22.95 5.80337L23.0433 8.44003C23.0433 10.3086 24.5581 11.8234 26.4267 11.8234C28.2952 11.8234 29.81 10.3086 29.81 8.44003V5.80337C29.81 4.5147 28.7653 3.47003 27.4767 3.47003H25.2833Z" fill="#212529"/>
<path fill-rule="evenodd" clip-rule="evenodd" d="M50.7867 23.7L51.0433 27.34C51.313 28.4792 51.0497 29.6792 50.3278 30.6009C49.6059 31.5225 48.504 32.0656 47.3333 32.0767H36.8567C35.9427 33.0509 34.6691 33.6076 33.3333 33.6167H19.3333C17.93 33.6355 16.5866 33.0488 15.6467 32.0067C15.4296 32.0308 15.2104 32.0308 14.9933 32.0067H4.28333C3.14461 31.9637 2.08341 31.4185 1.38536 30.5178C0.687314 29.6171 0.424138 28.4535 0.666668 27.34L1.01667 23.7C1.35715 21.9632 2.86375 20.6996 4.63333 20.6667H14.6667C15.0855 20.6435 15.5049 20.6989 15.9033 20.83C16.7985 19.7118 18.1577 19.0667 19.59 19.08H33.0767C34.4252 19.075 35.71 19.6536 36.6 20.6667C36.7625 20.6437 36.9275 20.6437 37.09 20.6667H47.17C48.9396 20.6996 50.4462 21.9632 50.7867 23.7ZM36.95 28.5067H47.52C47.5914 28.3692 47.5999 28.2076 47.5433 28.0634V27.5967L47.31 24.2834L47.17 24.0967H36.6C35.6136 24.1003 34.6721 23.6847 34.01 22.9534C33.7785 22.6765 33.4376 22.5145 33.0767 22.51H19.59C19.1991 22.515 18.831 22.6948 18.5867 23C17.9206 23.7907 16.9372 24.2439 15.9033 24.2367C15.48 24.2386 15.0602 24.1594 14.6667 24.0034H4.75001C4.61001 24.0034 4.61001 24.05 4.61001 24.19L4.37668 27.5034V27.97C4.31278 28.1109 4.31278 28.2725 4.37668 28.4134H15.0867C15.335 28.3906 15.585 28.3906 15.8333 28.4134C16.7816 28.431 17.6789 28.8458 18.3067 29.5567C18.5641 29.858 18.9372 30.036 19.3333 30.0467H33.4267C33.8235 30.039 34.1978 29.8604 34.4533 29.5567C35.1094 28.8836 36.0101 28.5048 36.95 28.5067Z" fill="#212529"/>
<path fill-rule="evenodd" clip-rule="evenodd" d="M47.2633 11.94C47.2633 14.7751 44.9651 17.0734 42.13 17.0734C40.7645 17.0796 39.4528 16.5415 38.4851 15.5781C37.5174 14.6148 36.9733 13.3055 36.9733 11.94V9.98003C36.9733 8.83518 37.4281 7.73722 38.2377 6.92769C39.0472 6.11816 40.1451 5.66336 41.29 5.66336H42.9467C45.3307 5.66336 47.2633 7.596 47.2633 9.98003V11.94ZM40.7125 9.49589C40.5594 9.64905 40.4733 9.85677 40.4733 10.0734V12.0334C40.5727 12.8665 41.2793 13.4938 42.1183 13.4938C42.9574 13.4938 43.6639 12.8665 43.7633 12.0334V10.0734C43.7633 9.62233 43.3977 9.2567 42.9467 9.2567H41.29C41.0734 9.2567 40.8657 9.34274 40.7125 9.49589Z" fill="#212529"/>
<path fill-rule="evenodd" clip-rule="evenodd" d="M13.3182 15.5781C12.3505 16.5415 11.0388 17.0796 9.67334 17.0734C8.3119 17.0734 7.00621 16.5325 6.04353 15.5698C5.08084 14.6072 4.54001 13.3015 4.54001 11.94V9.98003C4.54001 7.596 6.47264 5.66336 8.85667 5.66336H10.5133C12.8974 5.66336 14.83 7.596 14.83 9.98003V11.94C14.83 13.3055 14.286 14.6148 13.3182 15.5781ZM8.85667 9.2567C8.40564 9.2567 8.04001 9.62233 8.04001 10.0734V12.0334C8.13941 12.8665 8.84597 13.4938 9.68501 13.4938C10.524 13.4938 11.2306 12.8665 11.33 12.0334V10.0734C11.33 9.62233 10.9644 9.2567 10.5133 9.2567H8.85667Z" fill="#212529"/>
</svg>
