<svg width="37" height="50" viewBox="0 0 37 50" fill="none" xmlns="http://www.w3.org/2000/svg">
<path d="M22.4128 28.438C22.4128 26.2988 20.6787 24.5647 18.5395 24.5647C16.4003 24.5647 14.6662 26.2988 14.6662 28.438C14.663 29.3449 14.9859 30.2228 15.5762 30.9113C16.1709 31.5311 16.377 32.4274 16.1128 33.2447L15.6228 34.6913C15.4333 35.3419 15.5586 36.0436 15.9615 36.5885C16.3644 37.1333 16.9986 37.4586 17.6762 37.468H19.4028C20.1028 37.4678 20.7597 37.1299 21.167 36.5606C21.5743 35.9914 21.682 35.2606 21.4562 34.598L20.8728 33.1513C20.6086 32.3341 20.8148 31.4377 21.4095 30.818C22.013 30.1671 22.3682 29.3245 22.4128 28.438Z" fill="#212529"/>
<path fill-rule="evenodd" clip-rule="evenodd" d="M29.6228 14.9513V7.67134C29.6241 5.76948 28.8515 3.94898 27.4827 2.62859C26.1139 1.3082 24.2667 0.601604 22.3662 0.671339H14.7128C12.8123 0.601604 10.9651 1.3082 9.59632 2.62859C8.22752 3.94898 7.45489 5.76948 7.45617 7.67134V14.9513C2.62271 16.6531 -0.316819 21.5523 0.456173 26.618L2.67284 40.0813C3.76615 45.4443 8.54088 49.2563 14.0128 49.1347H23.0662C28.5773 49.273 33.3861 45.42 34.4528 40.0113L36.6695 26.548C37.4006 21.4938 34.4456 16.6308 29.6228 14.9513ZM10.9562 7.67134C11.0445 5.68248 12.7236 4.13898 14.7128 4.21801H22.3662C24.3554 4.13898 26.0345 5.68248 26.1228 7.67134V14.1347H10.9562V7.67134ZM30.2062 39.3113L32.5395 25.8013C32.7711 24.0535 32.2156 22.2931 31.0228 20.9947C29.5724 19.3498 27.4757 18.4208 25.2828 18.4513H11.7962C9.61075 18.409 7.51524 19.3204 6.05617 20.948C4.89188 22.2776 4.3789 24.0559 4.65617 25.8013L6.87283 39.3113C7.59629 42.6395 10.6101 44.9638 14.0128 44.818H23.0662C26.4689 44.9638 29.4827 42.6395 30.2062 39.3113Z" fill="#212529"/>
</svg>
