<svg width="21" height="20" viewBox="0 0 21 20" fill="none" xmlns="http://www.w3.org/2000/svg">
<path fill-rule="evenodd" clip-rule="evenodd" d="M19.6736 13.0336L20.4336 18.3136C20.4884 18.7201 20.3648 19.1305 20.0946 19.4391C19.8243 19.7477 19.4338 19.9244 19.0236 19.9236H18.8136L13.5336 19.1636C12.8179 19.0649 12.1541 18.7348 11.6436 18.2236L1.90356 8.47356C0.00869906 6.51167 0.0357982 3.39314 1.96447 1.46447C3.89314 -0.464202 7.01167 -0.491301 8.97356 1.40356L18.7336 11.1436C19.2448 11.6541 19.5749 12.3179 19.6736 13.0336ZM12.7536 17.1636C13.0301 17.4292 13.3773 17.6097 13.7536 17.6836L18.9636 18.3736L18.2336 13.2036C18.1597 12.8273 17.9792 12.4801 17.7136 12.2036L7.96356 2.46356C7.30662 1.78913 6.40506 1.40874 5.46356 1.40874C4.52206 1.40874 3.6205 1.78913 2.96356 2.46356C2.30464 3.11864 1.93414 4.00942 1.93414 4.93856C1.93414 5.8677 2.30464 6.75848 2.96356 7.41356L12.7536 17.1636Z" fill="#F8F9FA"/>
<path d="M5.93356 4.37356C5.63805 4.0982 5.17755 4.10633 4.89194 4.39194C4.60633 4.67755 4.5982 5.13805 4.87356 5.43356L9.08356 9.64356C9.37638 9.93601 9.85074 9.93601 10.1436 9.64356C10.436 9.35074 10.436 8.87638 10.1436 8.58356L5.93356 4.37356Z" fill="#F8F9FA"/>
</svg>
