<svg width="24" height="24" viewBox="0 0 24 24" fill="none" xmlns="http://www.w3.org/2000/svg">
<path fill-rule="evenodd" clip-rule="evenodd" d="M19.58 16.71L19.82 17.85C20.0474 18.8356 19.8228 19.8713 19.2076 20.6741C18.5924 21.477 17.6508 21.9632 16.64 22H7.35997C6.34915 21.9632 5.40754 21.477 4.79232 20.6741C4.1771 19.8713 3.95254 18.8356 4.17997 17.85L4.41997 16.71C4.69601 15.1668 6.02259 14.0327 7.58997 14H16.41C17.9774 14.0327 19.3039 15.1668 19.58 16.71ZM16.64 20.49C17.1478 20.4841 17.6256 20.2488 17.94 19.85V19.86C18.3257 19.3762 18.4759 18.7458 18.35 18.14L18.11 17C17.9768 16.1552 17.2646 15.5226 16.41 15.49H7.58998C6.73534 15.5226 6.02314 16.1552 5.88998 17L5.64998 18.14C5.52713 18.7426 5.67724 19.3686 6.05998 19.85C6.37431 20.2488 6.85219 20.4841 7.35998 20.49H16.64Z" fill="#495057"/>
<path fill-rule="evenodd" clip-rule="evenodd" d="M12.5 12H11.5C9.29082 12 7.49996 10.2091 7.49996 7.99998V5.35998C7.49729 4.46804 7.85043 3.61186 8.48113 2.98116C9.11184 2.35046 9.96802 1.99732 10.86 1.99998H13.14C14.0319 1.99732 14.8881 2.35046 15.5188 2.98116C16.1495 3.61186 16.5026 4.46804 16.5 5.35998V7.99998C16.5 10.2091 14.7091 12 12.5 12ZM10.86 3.49998C9.83271 3.49998 8.99996 4.33273 8.99996 5.35998V7.99998C8.99996 9.3807 10.1192 10.5 11.5 10.5H12.5C13.8807 10.5 15 9.3807 15 7.99998V5.35998C15 4.86668 14.804 4.39358 14.4552 4.04477C14.1064 3.69595 13.6333 3.49998 13.14 3.49998H10.86Z" fill="#495057"/>
</svg>
