<svg width="42" height="48" viewBox="0 0 42 48" fill="none" xmlns="http://www.w3.org/2000/svg">
<path d="M20.7201 13.4306C18.7484 13.4306 17.1501 15.029 17.1501 17.0006C17.1501 18.9723 18.7484 20.5706 20.7201 20.5706C22.6917 20.5706 24.2901 18.9723 24.2901 17.0006C24.2773 15.0343 22.6864 13.4433 20.7201 13.4306Z" fill="#212529"/>
<path d="M18.9701 24.584C18.9826 23.6227 19.7588 22.8465 20.7201 22.834C21.6813 22.8465 22.4575 23.6227 22.4701 24.584V28.6673C22.4701 29.6338 21.6866 30.4173 20.7201 30.4173C19.7536 30.4173 18.9701 29.6338 18.9701 28.6673V24.584Z" fill="#212529"/>
<path fill-rule="evenodd" clip-rule="evenodd" d="M34.2067 28.8306L39.1067 30.464C40.4657 30.9331 41.3879 32.1999 41.4167 33.6373V42.9706C41.4167 45.3804 39.4632 47.334 37.0534 47.334C36.5846 47.3344 36.1192 47.2555 35.6767 47.1006L33.3434 46.3073C32.6763 46.9754 31.7675 47.3456 30.8234 47.334H27.2767C25.6262 47.4277 24.2046 46.1824 24.0801 44.534V38.444C23.9553 36.7053 22.4607 35.3871 20.7201 35.4806C18.9795 35.3871 17.4848 36.7053 17.3601 38.444V44.534C17.2356 46.1824 15.8139 47.4277 14.1634 47.334H10.6167C9.67264 47.3456 8.76388 46.9754 8.09674 46.3073L5.7634 47.1006C5.32097 47.2555 4.85551 47.3344 4.38674 47.334C2.00385 47.3472 0.0510061 45.4463 7.15099e-05 43.0639V33.7306C-0.00712213 32.2528 0.933097 30.9365 2.3334 30.464L7.2334 28.8306V21.4106C7.39972 13.1863 11.7095 5.60251 18.6901 1.25062C19.2965 0.864822 20.0014 0.66227 20.7201 0.667284C21.4393 0.658209 22.1453 0.861088 22.7501 1.25062C29.7307 5.60251 34.0404 13.1863 34.2067 21.4106V28.8306ZM4.62006 43.7873L5.36673 43.5306L5.43673 33.1473L3.5234 33.7773V42.9706C3.5234 43.4474 3.90993 43.834 4.38673 43.834L4.62006 43.7873ZM30.4734 43.5306H27.7201V38.444C27.5575 34.6969 24.4706 31.7438 20.7201 31.7473C16.9695 31.7438 13.8826 34.6969 13.7201 38.444V43.6006H10.9667V21.4106C11.1595 14.4638 14.8221 8.07619 20.7201 4.40062C26.6338 8.07521 30.3066 14.4742 30.4967 21.434L30.4734 43.5306ZM37.1001 43.764C37.5769 43.764 37.9634 43.3774 37.9634 42.9006V33.7306L36.0734 33.1006V43.5073L36.8201 43.764H37.1001Z" fill="#212529"/>
</svg>
