<svg width="16" height="12" viewBox="0 0 16 12" fill="none" xmlns="http://www.w3.org/2000/svg">
<path fill-rule="evenodd" clip-rule="evenodd" d="M14.6266 3.69999L13.9266 2.99999C13.593 2.66265 13.1409 2.46889 12.6666 2.45999H9.99992V2.07332C9.99992 1.0608 9.17911 0.23999 8.16659 0.23999H2.66659C2.39044 0.23999 2.16659 0.463848 2.16659 0.73999C2.16659 1.01613 2.39044 1.23999 2.66659 1.23999H8.14659C8.60682 1.23999 8.97992 1.61309 8.97992 2.07332V6.29332C8.97992 6.56947 9.20378 6.79332 9.47992 6.79332C9.75606 6.79332 9.97992 6.56947 9.97992 6.29332V3.45999H12.6466C12.8675 3.45911 13.0793 3.54816 13.2333 3.70666L13.9333 4.37332C14.0287 4.4723 14.0975 4.59387 14.1333 4.72666H11.3333C11.0571 4.72666 10.8333 4.95051 10.8333 5.22666C10.8333 5.5028 11.0571 5.72666 11.3333 5.72666H14.1666V8.55999C14.1757 8.78672 14.0919 9.00735 13.9346 9.17091C13.7773 9.33448 13.5602 9.42684 13.3333 9.42666H12.5933C12.4292 8.65747 11.7497 8.10767 10.9633 8.10767C10.1768 8.10767 9.49732 8.65747 9.33325 9.42666H5.77325C5.59382 8.63159 4.86173 8.08591 4.04854 8.1411C3.23535 8.19629 2.5837 8.83587 2.51332 9.64789C2.44295 10.4599 2.97485 11.2021 3.76642 11.3963C4.55799 11.5906 5.37304 11.179 5.68659 10.4267H9.42659C9.68645 11.0455 10.2921 11.448 10.9633 11.448C11.6344 11.448 12.2401 11.0455 12.4999 10.4267H13.3333C14.3458 10.4267 15.1666 9.60585 15.1666 8.59332V4.99999C15.1675 4.51192 14.973 4.04378 14.6266 3.69999ZM4.14659 10.32C3.92277 10.3309 3.71496 10.2041 3.62226 10.0001C3.52956 9.79611 3.57074 9.55619 3.72618 9.39478C3.88161 9.23337 4.11981 9.18316 4.32717 9.2681C4.53453 9.35304 4.66905 9.55592 4.66659 9.77999C4.66678 10.0706 4.43698 10.3092 4.14659 10.32ZM10.4543 9.98096C10.5385 10.1861 10.7382 10.32 10.9599 10.32C11.2593 10.32 11.5029 10.0793 11.5066 9.77999C11.5093 9.5583 11.3778 9.35693 11.1738 9.27021C10.9697 9.18349 10.7335 9.2286 10.5758 9.38441C10.4181 9.54022 10.3701 9.77586 10.4543 9.98096Z" fill="#048F53"/>
<path d="M7.16659 3.99999C7.163 3.72535 6.94123 3.50358 6.66659 3.49999H1.33325C1.05711 3.49999 0.833252 3.72385 0.833252 3.99999C0.833252 4.27613 1.05711 4.49999 1.33325 4.49999H6.66659C6.94123 4.4964 7.163 4.27463 7.16659 3.99999Z" fill="#048F53"/>
<path d="M6.66659 5.49999H3.33325C3.05711 5.49999 2.83325 5.72385 2.83325 5.99999C2.83325 6.27613 3.05711 6.49999 3.33325 6.49999H6.66659C6.94273 6.49999 7.16659 6.27613 7.16659 5.99999C7.16659 5.72385 6.94273 5.49999 6.66659 5.49999Z" fill="#048F53"/>
</svg>
